<svg xmlns="http://www.w3.org/2000/svg" xmlns:xlink="http://www.w3.org/1999/xlink">
  <!-- Icons come from phosphor icon set: https://phosphoricons.com -->
  <defs>
    <symbol id="eye" fill="currentColor" viewBox="0 0 256 256">
      <path d="M247.31,124.76c-.35-.79-8.82-19.58-27.65-38.41C194.57,61.26,162.88,48,128,48S61.43,61.26,36.34,86.35C17.51,105.18,9,124,8.69,124.76a8,8,0,0,0,0,6.5c.35.79,8.82,19.57,27.65,38.4C61.43,194.74,93.12,208,128,208s66.57-13.26,91.66-38.34c18.83-18.83,27.3-37.61,27.65-38.4A8,8,0,0,0,247.31,124.76ZM128,192c-30.78,0-57.67-11.19-79.93-33.25A133.47,133.47,0,0,1,25,128,133.33,133.33,0,0,1,48.07,97.25C70.33,75.19,97.22,64,128,64s57.67,11.19,79.93,33.25A133.46,133.46,0,0,1,231.05,128C223.84,141.46,192.43,192,128,192Zm0-112a48,48,0,1,0,48,48A48.05,48.05,0,0,0,128,80Zm0,80a32,32,0,1,1,32-32A32,32,0,0,1,128,160Z" />
    </symbol>
    <symbol id="eye-slash" fill="currentColor" viewBox="0 0 256 256">
      <path d="M53.92,34.62A8,8,0,1,0,42.08,45.38L61.32,66.55C25,88.84,9.38,123.2,8.69,124.76a8,8,0,0,0,0,6.5c.35.79,8.82,19.57,27.65,38.4C61.43,194.74,93.12,208,128,208a127.11,127.11,0,0,0,52.07-10.83l22,24.21a8,8,0,1,0,11.84-10.76Zm47.33,75.84,41.67,45.85a32,32,0,0,1-41.67-45.85ZM128,192c-30.78,0-57.67-11.19-79.93-33.25A133.16,133.16,0,0,1,25,128c4.69-8.79,19.66-33.39,47.35-49.38l18,19.75a48,48,0,0,0,63.66,70l14.73,16.2A112,112,0,0,1,128,192Zm6-95.43a8,8,0,0,1,3-15.72,48.16,48.16,0,0,1,38.77,42.64,8,8,0,0,1-7.22,8.71,6.39,6.39,0,0,1-.75,0,8,8,0,0,1-8-7.26A32.09,32.09,0,0,0,134,96.57Zm113.28,34.69c-.42.94-10.55,23.37-33.36,43.8a8,8,0,1,1-10.67-11.92A132.77,132.77,0,0,0,231.05,128a133.15,133.15,0,0,0-23.12-30.77C185.67,75.19,158.78,64,128,64a118.37,118.37,0,0,0-19.36,1.57A8,8,0,1,1,106,49.79,134,134,0,0,1,128,48c34.88,0,66.57,13.26,91.66,38.35,18.83,18.83,27.3,37.62,27.65,38.41A8,8,0,0,1,247.31,131.26Z" />
    </symbol>
    <symbol id="notifications" fill="currentColor" viewBox="0 0 256 256">
      <path d="M221.8,175.94C216.25,166.38,208,139.33,208,104a80,80,0,1,0-160,0c0,35.34-8.26,62.38-13.81,71.94A16,16,0,0,0,48,200H88.81a40,40,0,0,0,78.38,0H208a16,16,0,0,0,13.8-24.06ZM128,216a24,24,0,0,1-22.62-16h45.24A24,24,0,0,1,128,216ZM48,184c7.7-13.24,16-43.92,16-80a64,64,0,1,1,128,0c0,36.05,8.28,66.73,16,80Z" />
    </symbol>
    <symbol id="donate" fill="currentColor" viewBox="0 0 256 256">
      <path d="M178,32c-20.65,0-38.73,8.88-50,23.89C116.73,40.88,98.65,32,78,32A62.07,62.07,0,0,0,16,94c0,70,103.79,126.66,108.21,129a8,8,0,0,0,7.58,0C136.21,220.66,240,164,240,94A62.07,62.07,0,0,0,178,32ZM128,206.8C109.74,196.16,32,147.69,32,94A46.06,46.06,0,0,1,78,48c19.45,0,35.78,10.36,42.6,27a8,8,0,0,0,14.8,0c6.82-16.67,23.15-27,42.6-27a46.06,46.06,0,0,1,46,46C224,147.61,146.24,196.15,128,206.8Z" />
    </symbol>
    <symbol id="search" fill="currentColor" viewBox="0 0 256 256">
      <path d="M229.66,218.34l-50.07-50.06a88.11,88.11,0,1,0-11.31,11.31l50.06,50.07a8,8,0,0,0,11.32-11.32ZM40,112a72,72,0,1,1,72,72A72.08,72.08,0,0,1,40,112Z" />
    </symbol>
    <symbol id="upvote" fill="currentColor" viewBox="0 0 256 256">
      <path d="M208.49,120.49a12,12,0,0,1-17,0L140,69V216a12,12,0,0,1-24,0V69L64.49,120.49a12,12,0,0,1-17-17l72-72a12,12,0,0,1,17,0l72,72A12,12,0,0,1,208.49,120.49Z" />
    </symbol>
    <symbol id="downvote" fill="currentColor" viewBox="0 0 256 256">
      <path d="M208.49,152.49l-72,72a12,12,0,0,1-17,0l-72-72a12,12,0,0,1,17-17L116,187V40a12,12,0,0,1,24,0V187l51.51-51.52a12,12,0,0,1,17,17Z" />
    </symbol>
    <symbol id="crosspost" fill="currentColor" viewBox="0 0 256 256">
      <path d="M195.88,96c.07-1.31.12-2.63.12-4A68,68,0,0,0,60,92c0,1.33,0,2.65.12,4A68,68,0,1,0,128,213.65,68,68,0,1,0,195.88,96ZM128,193.47a51.89,51.89,0,0,1-16-35.38,67.55,67.55,0,0,0,31.9,0A51.89,51.89,0,0,1,128,193.47ZM128,144a51.93,51.93,0,0,1-14.08-1.95A52.06,52.06,0,0,1,128,118.53a52.06,52.06,0,0,1,14.08,23.52A51.93,51.93,0,0,1,128,144Zm-28.77-8.71A52.19,52.19,0,0,1,77.92,106a51.88,51.88,0,0,1,36.79,3.28A68.17,68.17,0,0,0,99.23,135.29Zm42.06-26.06A51.88,51.88,0,0,1,178.08,106a52.19,52.19,0,0,1-21.31,29.34A68.17,68.17,0,0,0,141.29,109.23ZM128,40A52.06,52.06,0,0,1,180,89.91,67.72,67.72,0,0,0,128,98.35a67.72,67.72,0,0,0-51.95-8.44A52.06,52.06,0,0,1,128,40ZM40,156a52,52,0,0,1,23.23-43.29A68.36,68.36,0,0,0,96.12,152c-.07,1.31-.12,2.63-.12,4a67.74,67.74,0,0,0,18.71,46.77A52,52,0,0,1,40,156Zm124,52a51.65,51.65,0,0,1-22.71-5.23A67.74,67.74,0,0,0,160,156c0-1.33-.05-2.65-.12-4a68.36,68.36,0,0,0,32.89-39.33A52,52,0,0,1,164,208Z" />
    </symbol>
    <symbol id="vertical-dots" fill="currentColor" viewBox="0 0 256 256">
      <path d="M140,128a12,12,0,1,1-12-12A12,12,0,0,1,140,128ZM128,72a12,12,0,1,0-12-12A12,12,0,0,0,128,72Zm0,112a12,12,0,1,0,12,12A12,12,0,0,0,128,184Z" />
    </symbol>
    <symbol id="report" fill="currentColor" viewBox="0 0 256 256">
      <path d="M34.76,42A8,8,0,0,0,32,48V216a8,8,0,0,0,16,0V171.77c26.79-21.16,49.87-9.75,76.45,3.41,16.4,8.11,34.06,16.85,53,16.85,13.93,0,28.54-4.75,43.82-18a8,8,0,0,0,2.76-6V48A8,8,0,0,0,210.76,42c-28,24.23-51.72,12.49-79.21-1.12C103.07,26.76,70.78,10.79,34.76,42ZM208,164.25c-26.79,21.16-49.87,9.74-76.45-3.41-25-12.35-52.81-26.13-83.55-8.4V51.79c26.79-21.16,49.87-9.75,76.45,3.4,25,12.35,52.82,26.13,83.55,8.4Z" />
    </symbol>
    <symbol id="comment" fill="currentColor" viewBox="0 0 256 256">
      <path d="M216,48H40A16,16,0,0,0,24,64V224a15.85,15.85,0,0,0,9.24,14.5A16.13,16.13,0,0,0,40,240a15.89,15.89,0,0,0,10.25-3.78l.09-.07L83,208H216a16,16,0,0,0,16-16V64A16,16,0,0,0,216,48ZM40,224h0ZM216,192H80a8,8,0,0,0-5.23,1.95L40,224V64H216ZM88,112a8,8,0,0,1,8-8h64a8,8,0,0,1,0,16H96A8,8,0,0,1,88,112Zm0,32a8,8,0,0,1,8-8h64a8,8,0,1,1,0,16H96A8,8,0,0,1,88,144Z" />
    </symbol>
    <symbol id="block" fill="currentColor" viewBox="0 0 256 256">
      <path d="M165.66,154.34a8,8,0,0,1-11.32,11.32l-64-64a8,8,0,0,1,11.32-11.32ZM232,128A104,104,0,1,1,128,24,104.11,104.11,0,0,1,232,128Zm-16,0a88,88,0,1,0-88,88A88.1,88.1,0,0,0,216,128Z" />
    </symbol>
    <symbol id="save" fill="currentColor" viewBox="0 0 256 256">
      <path d="M239.2,97.29a16,16,0,0,0-13.81-11L166,81.17,142.72,25.81h0a15.95,15.95,0,0,0-29.44,0L90.07,81.17,30.61,86.32a16,16,0,0,0-9.11,28.06L66.61,153.8,53.09,212.34a16,16,0,0,0,23.84,17.34l51-31,51.11,31a16,16,0,0,0,23.84-17.34l-13.51-58.6,45.1-39.36A16,16,0,0,0,239.2,97.29Zm-15.22,5-45.1,39.36a16,16,0,0,0-5.08,15.71L187.35,216v0l-51.07-31a15.9,15.9,0,0,0-16.54,0l-51,31h0L82.2,157.4a16,16,0,0,0-5.08-15.71L32,102.35a.37.37,0,0,1,0-.09l59.44-5.14a16,16,0,0,0,13.35-9.75L128,32.08l23.2,55.29a16,16,0,0,0,13.35,9.75L224,102.26S224,102.32,224,102.33Z" />
    </symbol>
  </defs>
</svg>
