<svg xmlns="http://www.w3.org/2000/svg" xmlns:xlink="http://www.w3.org/1999/xlink">
  <!-- Icons come from phosphor icon set: https://phosphoricons.com -->
  <defs>
    <symbol id="eye" fill="currentColor" viewBox="0 0 256 256">
      <path d="M247.31,124.76c-.35-.79-8.82-19.58-27.65-38.41C194.57,61.26,162.88,48,128,48S61.43,61.26,36.34,86.35C17.51,105.18,9,124,8.69,124.76a8,8,0,0,0,0,6.5c.35.79,8.82,19.57,27.65,38.4C61.43,194.74,93.12,208,128,208s66.57-13.26,91.66-38.34c18.83-18.83,27.3-37.61,27.65-38.4A8,8,0,0,0,247.31,124.76ZM128,192c-30.78,0-57.67-11.19-79.93-33.25A133.47,133.47,0,0,1,25,128,133.33,133.33,0,0,1,48.07,97.25C70.33,75.19,97.22,64,128,64s57.67,11.19,79.93,33.25A133.46,133.46,0,0,1,231.05,128C223.84,141.46,192.43,192,128,192Zm0-112a48,48,0,1,0,48,48A48.05,48.05,0,0,0,128,80Zm0,80a32,32,0,1,1,32-32A32,32,0,0,1,128,160Z" />
    </symbol>
    <symbol id="eye-slash" fill="currentColor" viewBox="0 0 256 256">
      <path d="M53.92,34.62A8,8,0,1,0,42.08,45.38L61.32,66.55C25,88.84,9.38,123.2,8.69,124.76a8,8,0,0,0,0,6.5c.35.79,8.82,19.57,27.65,38.4C61.43,194.74,93.12,208,128,208a127.11,127.11,0,0,0,52.07-10.83l22,24.21a8,8,0,1,0,11.84-10.76Zm47.33,75.84,41.67,45.85a32,32,0,0,1-41.67-45.85ZM128,192c-30.78,0-57.67-11.19-79.93-33.25A133.16,133.16,0,0,1,25,128c4.69-8.79,19.66-33.39,47.35-49.38l18,19.75a48,48,0,0,0,63.66,70l14.73,16.2A112,112,0,0,1,128,192Zm6-95.43a8,8,0,0,1,3-15.72,48.16,48.16,0,0,1,38.77,42.64,8,8,0,0,1-7.22,8.71,6.39,6.39,0,0,1-.75,0,8,8,0,0,1-8-7.26A32.09,32.09,0,0,0,134,96.57Zm113.28,34.69c-.42.94-10.55,23.37-33.36,43.8a8,8,0,1,1-10.67-11.92A132.77,132.77,0,0,0,231.05,128a133.15,133.15,0,0,0-23.12-30.77C185.67,75.19,158.78,64,128,64a118.37,118.37,0,0,0-19.36,1.57A8,8,0,1,1,106,49.79,134,134,0,0,1,128,48c34.88,0,66.57,13.26,91.66,38.35,18.83,18.83,27.3,37.62,27.65,38.41A8,8,0,0,1,247.31,131.26Z" />
    </symbol>
    <symbol id="notifications" fill="currentColor" viewBox="0 0 256 256">
      <path d="M221.8,175.94C216.25,166.38,208,139.33,208,104a80,80,0,1,0-160,0c0,35.34-8.26,62.38-13.81,71.94A16,16,0,0,0,48,200H88.81a40,40,0,0,0,78.38,0H208a16,16,0,0,0,13.8-24.06ZM128,216a24,24,0,0,1-22.62-16h45.24A24,24,0,0,1,128,216ZM48,184c7.7-13.24,16-43.92,16-80a64,64,0,1,1,128,0c0,36.05,8.28,66.73,16,80Z" />
    </symbol>
    <symbol id="search" fill="currentColor" viewBox="0 0 256 256">
      <path d="M229.66,218.34l-50.07-50.06a88.11,88.11,0,1,0-11.31,11.31l50.06,50.07a8,8,0,0,0,11.32-11.32ZM40,112a72,72,0,1,1,72,72A72.08,72.08,0,0,1,40,112Z" />
    </symbol>
    <symbol id="upvote" fill="currentColor" viewBox="0 0 256 256">
      <path d="M208,32H48A16,16,0,0,0,32,48V208a16,16,0,0,0,16,16H208a16,16,0,0,0,16-16V48A16,16,0,0,0,208,32Zm0,176H48V48H208ZM90.34,125.66a8,8,0,0,1,0-11.32l32-32a8,8,0,0,1,11.32,0l32,32a8,8,0,0,1-11.32,11.32L136,107.31V168a8,8,0,0,1-16,0V107.31l-18.34,18.35A8,8,0,0,1,90.34,125.66Z" />
    </symbol>
    <symbol id="downvote" fill="currentColor" viewBox="0 0 256 256">
      <path d="M208,32H48A16,16,0,0,0,32,48V208a16,16,0,0,0,16,16H208a16,16,0,0,0,16-16V48A16,16,0,0,0,208,32Zm0,176H48V48H208V208Zm-42.34-77.66a8,8,0,0,1,0,11.32l-32,32a8,8,0,0,1-11.32,0l-32-32a8,8,0,0,1,11.32-11.32L120,148.69V88a8,8,0,0,1,16,0v60.69l18.34-18.35A8,8,0,0,1,165.66,130.34Z" />
    </symbol>
    <symbol id="crosspost" fill="currentColor" viewBox="0 0 256 256">
      <path d="M195.88,96c.07-1.31.12-2.63.12-4A68,68,0,0,0,60,92c0,1.33,0,2.65.12,4A68,68,0,1,0,128,213.65,68,68,0,1,0,195.88,96ZM128,193.47a51.89,51.89,0,0,1-16-35.38,67.55,67.55,0,0,0,31.9,0A51.89,51.89,0,0,1,128,193.47ZM128,144a51.93,51.93,0,0,1-14.08-1.95A52.06,52.06,0,0,1,128,118.53a52.06,52.06,0,0,1,14.08,23.52A51.93,51.93,0,0,1,128,144Zm-28.77-8.71A52.19,52.19,0,0,1,77.92,106a51.88,51.88,0,0,1,36.79,3.28A68.17,68.17,0,0,0,99.23,135.29Zm42.06-26.06A51.88,51.88,0,0,1,178.08,106a52.19,52.19,0,0,1-21.31,29.34A68.17,68.17,0,0,0,141.29,109.23ZM128,40A52.06,52.06,0,0,1,180,89.91,67.72,67.72,0,0,0,128,98.35a67.72,67.72,0,0,0-51.95-8.44A52.06,52.06,0,0,1,128,40ZM40,156a52,52,0,0,1,23.23-43.29A68.36,68.36,0,0,0,96.12,152c-.07,1.31-.12,2.63-.12,4a67.74,67.74,0,0,0,18.71,46.77A52,52,0,0,1,40,156Zm124,52a51.65,51.65,0,0,1-22.71-5.23A67.74,67.74,0,0,0,160,156c0-1.33-.05-2.65-.12-4a68.36,68.36,0,0,0,32.89-39.33A52,52,0,0,1,164,208Z" />
    </symbol>
    <symbol id="vertical-dots" fill="currentColor" viewBox="0 0 256 256">
      <path d="M140,128a12,12,0,1,1-12-12A12,12,0,0,1,140,128ZM128,72a12,12,0,1,0-12-12A12,12,0,0,0,128,72Zm0,112a12,12,0,1,0,12,12A12,12,0,0,0,128,184Z" />
    </symbol>
    <symbol id="report" fill="currentColor" viewBox="0 0 256 256">
      <path d="M34.76,42A8,8,0,0,0,32,48V216a8,8,0,0,0,16,0V171.77c26.79-21.16,49.87-9.75,76.45,3.41,16.4,8.11,34.06,16.85,53,16.85,13.93,0,28.54-4.75,43.82-18a8,8,0,0,0,2.76-6V48A8,8,0,0,0,210.76,42c-28,24.23-51.72,12.49-79.21-1.12C103.07,26.76,70.78,10.79,34.76,42ZM208,164.25c-26.79,21.16-49.87,9.74-76.45-3.41-25-12.35-52.81-26.13-83.55-8.4V51.79c26.79-21.16,49.87-9.75,76.45,3.4,25,12.35,52.82,26.13,83.55,8.4Z" />
    </symbol>
    <symbol id="comment" fill="currentColor" viewBox="0 0 256 256">
      <path d="M216,48H40A16,16,0,0,0,24,64V224a15.85,15.85,0,0,0,9.24,14.5A16.13,16.13,0,0,0,40,240a15.89,15.89,0,0,0,10.25-3.78l.09-.07L83,208H216a16,16,0,0,0,16-16V64A16,16,0,0,0,216,48ZM40,224h0ZM216,192H80a8,8,0,0,0-5.23,1.95L40,224V64H216ZM88,112a8,8,0,0,1,8-8h64a8,8,0,0,1,0,16H96A8,8,0,0,1,88,112Zm0,32a8,8,0,0,1,8-8h64a8,8,0,1,1,0,16H96A8,8,0,0,1,88,144Z" />
    </symbol>
    <symbol id="comments" fill="currentColor" viewBox="0 0 256 256">
      <path d="M216,80H184V48a16,16,0,0,0-16-16H40A16,16,0,0,0,24,48V176a8,8,0,0,0,13,6.22L72,154V184a16,16,0,0,0,16,16h93.59L219,230.22a8,8,0,0,0,5,1.78,8,8,0,0,0,8-8V96A16,16,0,0,0,216,80ZM66.55,137.78,40,159.25V48H168v88H71.58A8,8,0,0,0,66.55,137.78ZM216,207.25l-26.55-21.47a8,8,0,0,0-5-1.78H88V152h80a16,16,0,0,0,16-16V96h32Z" />
    </symbol>
    <symbol id="block" fill="currentColor" viewBox="0 0 256 256">
      <path d="M165.66,154.34a8,8,0,0,1-11.32,11.32l-64-64a8,8,0,0,1,11.32-11.32ZM232,128A104,104,0,1,1,128,24,104.11,104.11,0,0,1,232,128Zm-16,0a88,88,0,1,0-88,88A88.1,88.1,0,0,0,216,128Z" />
    </symbol>
    <symbol id="save" fill="currentColor" viewBox="0 0 256 256">
      <path d="M184,32H72A16,16,0,0,0,56,48V224a8,8,0,0,0,12.24,6.78L128,193.43l59.77,37.35A8,8,0,0,0,200,224V48A16,16,0,0,0,184,32Zm0,16V161.57l-51.77-32.35a8,8,0,0,0-8.48,0L72,161.56V48ZM132.23,177.22a8,8,0,0,0-8.48,0L72,209.57V180.43l56-35,56,35v29.14Z" />
    </symbol>
    <symbol id="save-filled" fill="currentColor" viewBox="0 0 256 256">
      <path d="M184,32H72A16,16,0,0,0,56,48V224a8,8,0,0,0,12.24,6.78L128,193.43l59.77,37.35A8,8,0,0,0,200,224V48A16,16,0,0,0,184,32ZM132.23,177.22a8,8,0,0,0-8.48,0L72,209.57V180.43l56-35,56,35v29.14Z" />
    </symbol>
    <symbol id="create-post" fill="currentColor" viewBox="0 0 256 256">
      <path d="M229.66,58.34l-32-32a8,8,0,0,0-11.32,0l-96,96A8,8,0,0,0,88,128v32a8,8,0,0,0,8,8h32a8,8,0,0,0,5.66-2.34l96-96A8,8,0,0,0,229.66,58.34ZM124.69,152H104V131.31l64-64L188.69,88ZM200,76.69,179.31,56,192,43.31,212.69,64ZM224,128v80a16,16,0,0,1-16,16H48a16,16,0,0,1-16-16V48A16,16,0,0,1,48,32h80a8,8,0,0,1,0,16H48V208H208V128a8,8,0,0,1,16,0Z" />
    </symbol>
    <symbol id="create-community" fill="currentColor" viewBox="0 0 256 256">
      <path d="M208,32H160a16,16,0,0,0-16,16V208a16,16,0,0,0,16,16h48a16,16,0,0,0,16-16V48A16,16,0,0,0,208,32Zm0,176H160V176h24a8,8,0,0,0,0-16H160V136h24a8,8,0,0,0,0-16H160V96h24a8,8,0,0,0,0-16H160V48h48V208ZM77.66,26.34a8,8,0,0,0-11.32,0l-32,32A8,8,0,0,0,32,64V208a16,16,0,0,0,16,16H96a16,16,0,0,0,16-16V64a8,8,0,0,0-2.34-5.66ZM48,176V80H64v96ZM80,80H96v96H80ZM72,43.31,92.69,64H51.31ZM48,208V192H96v16Z" />
    </symbol>
    <symbol id="communities" fill="currentColor" viewBox="0 0 256 256">
      <path d="M240,208h-8V88a8,8,0,0,0-8-8H160a8,8,0,0,0-8,8v40H104V40a8,8,0,0,0-8-8H32a8,8,0,0,0-8,8V208H16a8,8,0,0,0,0,16H240a8,8,0,0,0,0-16ZM168,96h48V208H168Zm-16,48v64H104V144ZM40,48H88V208H40ZM72,72V88a8,8,0,0,1-16,0V72a8,8,0,0,1,16,0Zm0,48v16a8,8,0,0,1-16,0V120a8,8,0,0,1,16,0Zm0,48v16a8,8,0,0,1-16,0V168a8,8,0,0,1,16,0Zm48,16V168a8,8,0,0,1,16,0v16a8,8,0,0,1-16,0Zm64,0V168a8,8,0,0,1,16,0v16a8,8,0,0,1-16,0Zm0-48V120a8,8,0,0,1,16,0v16a8,8,0,0,1-16,0Z" />
    </symbol>
    <symbol id="documentation" fill="currentColor" viewBox="0 0 256 256">
      <path d="M213.66,66.34l-40-40A8,8,0,0,0,168,24H88A16,16,0,0,0,72,40V56H56A16,16,0,0,0,40,72V216a16,16,0,0,0,16,16H168a16,16,0,0,0,16-16V200h16a16,16,0,0,0,16-16V72A8,8,0,0,0,213.66,66.34ZM168,216H56V72h76.69L168,107.31v84.53c0,.06,0,.11,0,.16s0,.1,0,.16V216Zm32-32H184V104a8,8,0,0,0-2.34-5.66l-40-40A8,8,0,0,0,136,56H88V40h76.69L200,75.31Zm-56-32a8,8,0,0,1-8,8H88a8,8,0,0,1,0-16h48A8,8,0,0,1,144,152Zm0,32a8,8,0,0,1-8,8H88a8,8,0,0,1,0-16h48A8,8,0,0,1,144,184Z" />
    </symbol>
    <symbol id="code" fill="currentColor" viewBox="0 0 256 256">
      <path d="M69.12,94.15,28.5,128l40.62,33.85a8,8,0,1,1-10.24,12.29l-48-40a8,8,0,0,1,0-12.29l48-40a8,8,0,0,1,10.24,12.3Zm176,27.7-48-40a8,8,0,1,0-10.24,12.3L227.5,128l-40.62,33.85a8,8,0,1,0,10.24,12.29l48-40a8,8,0,0,0,0-12.29ZM162.73,32.48a8,8,0,0,0-10.25,4.79l-64,176a8,8,0,0,0,4.79,10.26A8.14,8.14,0,0,0,96,224a8,8,0,0,0,7.52-5.27l64-176A8,8,0,0,0,162.73,32.48Z" />
    </symbol>
    <symbol id="info" fill="currentColor" viewBox="0 0 256 256">
      <path d="M128,24A104,104,0,1,0,232,128,104.11,104.11,0,0,0,128,24Zm0,192a88,88,0,1,1,88-88A88.1,88.1,0,0,1,128,216Zm16-40a8,8,0,0,1-8,8,16,16,0,0,1-16-16V128a8,8,0,0,1,0-16,16,16,0,0,1,16,16v40A8,8,0,0,1,144,176ZM112,84a12,12,0,1,1,12,12A12,12,0,0,1,112,84Z" />
    </symbol>
    <symbol id="donate" fill="currentColor" viewBox="0 0 256 256">
      <path d="M230.33,141.06a24.34,24.34,0,0,0-18.61-4.77C230.5,117.33,240,98.48,240,80c0-26.47-21.29-48-47.46-48A47.58,47.58,0,0,0,156,48.75,47.58,47.58,0,0,0,119.46,32C93.29,32,72,53.53,72,80c0,11,3.24,21.69,10.06,33a31.87,31.87,0,0,0-14.75,8.4L44.69,144H16A16,16,0,0,0,0,160v40a16,16,0,0,0,16,16H120a7.93,7.93,0,0,0,1.94-.24l64-16a6.94,6.94,0,0,0,1.19-.4L226,182.82l.44-.2a24.6,24.6,0,0,0,3.93-41.56ZM119.46,48A31.15,31.15,0,0,1,148.6,67a8,8,0,0,0,14.8,0,31.15,31.15,0,0,1,29.14-19C209.59,48,224,62.65,224,80c0,19.51-15.79,41.58-45.66,63.9l-11.09,2.55A28,28,0,0,0,140,112H100.68C92.05,100.36,88,90.12,88,80,88,62.65,102.41,48,119.46,48ZM16,160H40v40H16Zm203.43,8.21-38,16.18L119,200H56V155.31l22.63-22.62A15.86,15.86,0,0,1,89.94,128H140a12,12,0,0,1,0,24H112a8,8,0,0,0,0,16h32a8.32,8.32,0,0,0,1.79-.2l67-15.41.31-.08a8.6,8.6,0,0,1,6.3,15.9Z" />
    </symbol>
    <symbol id="modlog" fill="currentColor" viewBox="0 0 256 256">
      <path d="M92,136H40a16,16,0,0,1-11.76-5.21,16.21,16.21,0,0,1-4.17-12.37A103.83,103.83,0,0,1,67.65,42.93,16,16,0,0,1,90.75,48l26,45a8,8,0,1,1-13.86,8L76.89,56A87.83,87.83,0,0,0,40,119.86a.19.19,0,0,0,.07.16L92,120a8,8,0,0,1,0,16Zm139.93-17.58a103.83,103.83,0,0,0-43.58-75.49A16,16,0,0,0,165.25,48L139.3,93a8,8,0,0,0,13.86,8l26-45A87.87,87.87,0,0,1,216,119.86c0,.07,0,.12,0,.14H164a8,8,0,0,0,0,16h52a16,16,0,0,0,11.76-5.21A16.21,16.21,0,0,0,231.93,118.42Zm-79,36.76a8,8,0,1,0-13.86,8l25.84,44.73a88.22,88.22,0,0,1-73.81,0l25.83-44.73a8,8,0,1,0-13.86-8L77.25,199.91a16,16,0,0,0,7.12,22.52,104.24,104.24,0,0,0,87.26,0,16,16,0,0,0,7.12-22.52ZM128,140a12,12,0,1,0-12-12A12,12,0,0,0,128,140Z" />
    </symbol>
    <symbol id="instances" fill="currentColor" viewBox="0 0 256 256">
      <path d="M200,152a31.84,31.84,0,0,0-19.53,6.68l-23.11-18A31.65,31.65,0,0,0,160,128c0-.74,0-1.48-.08-2.21l13.23-4.41A32,32,0,1,0,168,104c0,.74,0,1.48.08,2.21l-13.23,4.41A32,32,0,0,0,128,96a32.59,32.59,0,0,0-5.27.44L115.89,81A32,32,0,1,0,96,88a32.59,32.59,0,0,0,5.27-.44l6.84,15.4a31.92,31.92,0,0,0-8.57,39.64L73.83,165.44a32.06,32.06,0,1,0,10.63,12l25.71-22.84a31.91,31.91,0,0,0,37.36-1.24l23.11,18A31.65,31.65,0,0,0,168,184a32,32,0,1,0,32-32Zm0-64a16,16,0,1,1-16,16A16,16,0,0,1,200,88ZM80,56A16,16,0,1,1,96,72,16,16,0,0,1,80,56ZM56,208a16,16,0,1,1,16-16A16,16,0,0,1,56,208Zm56-80a16,16,0,1,1,16,16A16,16,0,0,1,112,128Zm88,72a16,16,0,1,1,16-16A16,16,0,0,1,200,200Z" />
    </symbol>
    <symbol id="legal" fill="currentColor" viewBox="0 0 256 256">
      <path d="M239.43,133l-32-80h0a8,8,0,0,0-9.16-4.84L136,62V40a8,8,0,0,0-16,0V65.58L54.26,80.19A8,8,0,0,0,48.57,85h0v.06L16.57,165a7.92,7.92,0,0,0-.57,3c0,23.31,24.54,32,40,32s40-8.69,40-32a7.92,7.92,0,0,0-.57-3L66.92,93.77,120,82V208H104a8,8,0,0,0,0,16h48a8,8,0,0,0,0-16H136V78.42L187,67.1,160.57,133a7.92,7.92,0,0,0-.57,3c0,23.31,24.54,32,40,32s40-8.69,40-32A7.92,7.92,0,0,0,239.43,133ZM56,184c-7.53,0-22.76-3.61-23.93-14.64L56,109.54l23.93,59.82C78.76,180.39,63.53,184,56,184Zm144-32c-7.53,0-22.76-3.61-23.93-14.64L200,77.54l23.93,59.82C222.76,148.39,207.53,152,200,152Z" />
    </symbol>
    <symbol id="theme" fill="currentColor" viewBox="0 0 256 256">
      <path d="M200.77,53.89A103.27,103.27,0,0,0,128,24h-1.07A104,104,0,0,0,24,128c0,43,26.58,79.06,69.36,94.17A32,32,0,0,0,136,192a16,16,0,0,1,16-16h46.21a31.81,31.81,0,0,0,31.2-24.88,104.43,104.43,0,0,0,2.59-24A103.28,103.28,0,0,0,200.77,53.89Zm13,93.71A15.89,15.89,0,0,1,198.21,160H152a32,32,0,0,0-32,32,16,16,0,0,1-21.31,15.07C62.49,194.3,40,164,40,128a88,88,0,0,1,87.09-88h.9a88.35,88.35,0,0,1,88,87.25A88.86,88.86,0,0,1,213.81,147.6ZM140,76a12,12,0,1,1-12-12A12,12,0,0,1,140,76ZM96,100A12,12,0,1,1,84,88,12,12,0,0,1,96,100Zm0,56a12,12,0,1,1-12-12A12,12,0,0,1,96,156Zm88-56a12,12,0,1,1-12-12A12,12,0,0,1,184,100Z" />
    </symbol>
    <symbol id="dropdown-caret" fill="currentColor" viewBox="0 0 256 256">
      <path d="M213.66,101.66l-80,80a8,8,0,0,1-11.32,0l-80-80A8,8,0,0,1,53.66,90.34L128,164.69l74.34-74.35a8,8,0,0,1,11.32,11.32Z" />
    </symbol>
  </defs>
</svg>

