<svg xmlns="http://www.w3.org/2000/svg" xmlns:xlink="http://www.w3.org/1999/xlink" viewBox="0 0 256 256">
    <!-- Icons come from phosphor icon set: https://phosphoricons.com -->

    <style>
        use {
            display: none;
        }

        use:target {
            display: block;
        }
    </style>

    <symbol id="eye" fill="currentColor" viewBox="0 0 256 256">
        <path d="M247.31,124.76c-.35-.79-8.82-19.58-27.65-38.41C194.57,61.26,162.88,48,128,48S61.43,61.26,36.34,86.35C17.51,105.18,9,124,8.69,124.76a8,8,0,0,0,0,6.5c.35.79,8.82,19.57,27.65,38.4C61.43,194.74,93.12,208,128,208s66.57-13.26,91.66-38.34c18.83-18.83,27.3-37.61,27.65-38.4A8,8,0,0,0,247.31,124.76ZM128,192c-30.78,0-57.67-11.19-79.93-33.25A133.47,133.47,0,0,1,25,128,133.33,133.33,0,0,1,48.07,97.25C70.33,75.19,97.22,64,128,64s57.67,11.19,79.93,33.25A133.46,133.46,0,0,1,231.05,128C223.84,141.46,192.43,192,128,192Zm0-112a48,48,0,1,0,48,48A48.05,48.05,0,0,0,128,80Zm0,80a32,32,0,1,1,32-32A32,32,0,0,1,128,160Z" />
    </symbol>
    <symbol id="eye-slash" fill="currentColor" viewBox="0 0 256 256">
        <path d="M53.92,34.62A8,8,0,1,0,42.08,45.38L61.32,66.55C25,88.84,9.38,123.2,8.69,124.76a8,8,0,0,0,0,6.5c.35.79,8.82,19.57,27.65,38.4C61.43,194.74,93.12,208,128,208a127.11,127.11,0,0,0,52.07-10.83l22,24.21a8,8,0,1,0,11.84-10.76Zm47.33,75.84,41.67,45.85a32,32,0,0,1-41.67-45.85ZM128,192c-30.78,0-57.67-11.19-79.93-33.25A133.16,133.16,0,0,1,25,128c4.69-8.79,19.66-33.39,47.35-49.38l18,19.75a48,48,0,0,0,63.66,70l14.73,16.2A112,112,0,0,1,128,192Zm6-95.43a8,8,0,0,1,3-15.72,48.16,48.16,0,0,1,38.77,42.64,8,8,0,0,1-7.22,8.71,6.39,6.39,0,0,1-.75,0,8,8,0,0,1-8-7.26A32.09,32.09,0,0,0,134,96.57Zm113.28,34.69c-.42.94-10.55,23.37-33.36,43.8a8,8,0,1,1-10.67-11.92A132.77,132.77,0,0,0,231.05,128a133.15,133.15,0,0,0-23.12-30.77C185.67,75.19,158.78,64,128,64a118.37,118.37,0,0,0-19.36,1.57A8,8,0,1,1,106,49.79,134,134,0,0,1,128,48c34.88,0,66.57,13.26,91.66,38.35,18.83,18.83,27.3,37.62,27.65,38.41A8,8,0,0,1,247.31,131.26Z" />
    </symbol>
    <symbol id="notifications" fill="currentColor" viewBox="0 0 256 256">
        <path d="M221.8,175.94C216.25,166.38,208,139.33,208,104a80,80,0,1,0-160,0c0,35.34-8.26,62.38-13.81,71.94A16,16,0,0,0,48,200H88.81a40,40,0,0,0,78.38,0H208a16,16,0,0,0,13.8-24.06ZM128,216a24,24,0,0,1-22.62-16h45.24A24,24,0,0,1,128,216ZM48,184c7.7-13.24,16-43.92,16-80a64,64,0,1,1,128,0c0,36.05,8.28,66.73,16,80Z" />
    </symbol>
    <symbol id="search" fill="currentColor" viewBox="0 0 256 256">
        <path d="M229.66,218.34l-50.07-50.06a88.11,88.11,0,1,0-11.31,11.31l50.06,50.07a8,8,0,0,0,11.32-11.32ZM40,112a72,72,0,1,1,72,72A72.08,72.08,0,0,1,40,112Z" />
    </symbol>
    <symbol id="upvote" fill="currentColor" viewBox="0 0 256 256">
        <path d="M208,32H48A16,16,0,0,0,32,48V208a16,16,0,0,0,16,16H208a16,16,0,0,0,16-16V48A16,16,0,0,0,208,32Zm0,176H48V48H208ZM90.34,125.66a8,8,0,0,1,0-11.32l32-32a8,8,0,0,1,11.32,0l32,32a8,8,0,0,1-11.32,11.32L136,107.31V168a8,8,0,0,1-16,0V107.31l-18.34,18.35A8,8,0,0,1,90.34,125.66Z" />
    </symbol>
    <symbol id="downvote" fill="currentColor" viewBox="0 0 256 256">
        <path d="M208,32H48A16,16,0,0,0,32,48V208a16,16,0,0,0,16,16H208a16,16,0,0,0,16-16V48A16,16,0,0,0,208,32Zm0,176H48V48H208V208Zm-42.34-77.66a8,8,0,0,1,0,11.32l-32,32a8,8,0,0,1-11.32,0l-32-32a8,8,0,0,1,11.32-11.32L120,148.69V88a8,8,0,0,1,16,0v60.69l18.34-18.35A8,8,0,0,1,165.66,130.34Z" />
    </symbol>
    <symbol id="crosspost" fill="currentColor" viewBox="0 0 256 256">
        <path d="M174.63,81.37a80,80,0,1,0-93.26,93.26,80,80,0,1,0,93.26-93.26ZM100.69,136,120,155.31A63.48,63.48,0,0,1,96,160,63.48,63.48,0,0,1,100.69,136Zm33.75,11.13-25.57-25.57a64.65,64.65,0,0,1,12.69-12.69l25.57,25.57A64.65,64.65,0,0,1,134.44,147.13ZM155.31,120,136,100.69A63.48,63.48,0,0,1,160,96,63.48,63.48,0,0,1,155.31,120ZM32,96a64,64,0,0,1,126-16A80.08,80.08,0,0,0,80.05,158,64.11,64.11,0,0,1,32,96ZM160,224A64.11,64.11,0,0,1,98,176,80.08,80.08,0,0,0,176,98,64,64,0,0,1,160,224Z" />
    </symbol>
    <symbol id="vertical-dots" fill="currentColor" viewBox="0 0 256 256">
        <path d="M140,128a12,12,0,1,1-12-12A12,12,0,0,1,140,128ZM128,72a12,12,0,1,0-12-12A12,12,0,0,0,128,72Zm0,112a12,12,0,1,0,12,12A12,12,0,0,0,128,184Z" />
    </symbol>
    <symbol id="report" fill="currentColor" viewBox="0 0 256 256">
        <path d="M34.76,42A8,8,0,0,0,32,48V216a8,8,0,0,0,16,0V171.77c26.79-21.16,49.87-9.75,76.45,3.41,16.4,8.11,34.06,16.85,53,16.85,13.93,0,28.54-4.75,43.82-18a8,8,0,0,0,2.76-6V48A8,8,0,0,0,210.76,42c-28,24.23-51.72,12.49-79.21-1.12C103.07,26.76,70.78,10.79,34.76,42ZM208,164.25c-26.79,21.16-49.87,9.74-76.45-3.41-25-12.35-52.81-26.13-83.55-8.4V51.79c26.79-21.16,49.87-9.75,76.45,3.4,25,12.35,52.82,26.13,83.55,8.4Z" />
    </symbol>
    <symbol id="comment" fill="currentColor" viewBox="0 0 256 256">
        <path d="M216,48H40A16,16,0,0,0,24,64V224a15.85,15.85,0,0,0,9.24,14.5A16.13,16.13,0,0,0,40,240a15.89,15.89,0,0,0,10.25-3.78l.09-.07L83,208H216a16,16,0,0,0,16-16V64A16,16,0,0,0,216,48ZM40,224h0ZM216,192H80a8,8,0,0,0-5.23,1.95L40,224V64H216ZM88,112a8,8,0,0,1,8-8h64a8,8,0,0,1,0,16H96A8,8,0,0,1,88,112Zm0,32a8,8,0,0,1,8-8h64a8,8,0,1,1,0,16H96A8,8,0,0,1,88,144Z" />
    </symbol>
    <symbol id="comments" fill="currentColor" viewBox="0 0 256 256">
        <path d="M216,80H184V48a16,16,0,0,0-16-16H40A16,16,0,0,0,24,48V176a8,8,0,0,0,13,6.22L72,154V184a16,16,0,0,0,16,16h93.59L219,230.22a8,8,0,0,0,5,1.78,8,8,0,0,0,8-8V96A16,16,0,0,0,216,80ZM66.55,137.78,40,159.25V48H168v88H71.58A8,8,0,0,0,66.55,137.78ZM216,207.25l-26.55-21.47a8,8,0,0,0-5-1.78H88V152h80a16,16,0,0,0,16-16V96h32Z" />
    </symbol>
    <symbol id="block" fill="currentColor" viewBox="0 0 256 256">
        <path d="M165.66,154.34a8,8,0,0,1-11.32,11.32l-64-64a8,8,0,0,1,11.32-11.32ZM232,128A104,104,0,1,1,128,24,104.11,104.11,0,0,1,232,128Zm-16,0a88,88,0,1,0-88,88A88.1,88.1,0,0,0,216,128Z" />
    </symbol>
    <symbol id="save" fill="currentColor" viewBox="0 0 256 256">
        <path d="M184,32H72A16,16,0,0,0,56,48V224a8,8,0,0,0,12.24,6.78L128,193.43l59.77,37.35A8,8,0,0,0,200,224V48A16,16,0,0,0,184,32Zm0,16V161.57l-51.77-32.35a8,8,0,0,0-8.48,0L72,161.56V48ZM132.23,177.22a8,8,0,0,0-8.48,0L72,209.57V180.43l56-35,56,35v29.14Z" />
    </symbol>
    <symbol id="save-filled" fill="currentColor" viewBox="0 0 256 256">
        <path d="M184,32H72A16,16,0,0,0,56,48V224a8,8,0,0,0,12.24,6.78L128,193.43l59.77,37.35A8,8,0,0,0,200,224V48A16,16,0,0,0,184,32ZM132.23,177.22a8,8,0,0,0-8.48,0L72,209.57V180.43l56-35,56,35v29.14Z" />
    </symbol>
    <symbol id="create-post" fill="currentColor" viewBox="0 0 256 256">
        <path d="M229.66,58.34l-32-32a8,8,0,0,0-11.32,0l-96,96A8,8,0,0,0,88,128v32a8,8,0,0,0,8,8h32a8,8,0,0,0,5.66-2.34l96-96A8,8,0,0,0,229.66,58.34ZM124.69,152H104V131.31l64-64L188.69,88ZM200,76.69,179.31,56,192,43.31,212.69,64ZM224,128v80a16,16,0,0,1-16,16H48a16,16,0,0,1-16-16V48A16,16,0,0,1,48,32h80a8,8,0,0,1,0,16H48V208H208V128a8,8,0,0,1,16,0Z" />
    </symbol>
    <symbol id="create-community" fill="currentColor" viewBox="0 0 256 256">
        <path d="M208,32H160a16,16,0,0,0-16,16V208a16,16,0,0,0,16,16h48a16,16,0,0,0,16-16V48A16,16,0,0,0,208,32Zm0,176H160V176h24a8,8,0,0,0,0-16H160V136h24a8,8,0,0,0,0-16H160V96h24a8,8,0,0,0,0-16H160V48h48V208ZM77.66,26.34a8,8,0,0,0-11.32,0l-32,32A8,8,0,0,0,32,64V208a16,16,0,0,0,16,16H96a16,16,0,0,0,16-16V64a8,8,0,0,0-2.34-5.66ZM48,176V80H64v96ZM80,80H96v96H80ZM72,43.31,92.69,64H51.31ZM48,208V192H96v16Z" />
    </symbol>
    <symbol id="communities" fill="currentColor" viewBox="0 0 256 256">
        <path d="M240,208h-8V88a8,8,0,0,0-8-8H160a8,8,0,0,0-8,8v40H104V40a8,8,0,0,0-8-8H32a8,8,0,0,0-8,8V208H16a8,8,0,0,0,0,16H240a8,8,0,0,0,0-16ZM168,96h48V208H168Zm-16,48v64H104V144ZM40,48H88V208H40ZM72,72V88a8,8,0,0,1-16,0V72a8,8,0,0,1,16,0Zm0,48v16a8,8,0,0,1-16,0V120a8,8,0,0,1,16,0Zm0,48v16a8,8,0,0,1-16,0V168a8,8,0,0,1,16,0Zm48,16V168a8,8,0,0,1,16,0v16a8,8,0,0,1-16,0Zm64,0V168a8,8,0,0,1,16,0v16a8,8,0,0,1-16,0Zm0-48V120a8,8,0,0,1,16,0v16a8,8,0,0,1-16,0Z" />
    </symbol>
    <symbol id="community" fill="currentColor" viewBox="0 0 256 256">
        <rect width="256" height="256" fill="none"/>
        <line x1="16" y1="216" x2="240" y2="216" fill="none" stroke="currentColor" stroke-linecap="round" stroke-linejoin="round" stroke-width="16"/>
        <polyline points="224 216 224 72 176 72 176 40 80 40 80 104 32 104 32 216" fill="none" stroke="currentColor" stroke-linecap="round" stroke-linejoin="round" stroke-width="16"/>
        <line x1="120" y1="72" x2="136" y2="72" fill="none" stroke="currentColor" stroke-linecap="round" stroke-linejoin="round" stroke-width="16"/>
        <line x1="120" y1="104" x2="136" y2="104" fill="none" stroke="currentColor" stroke-linecap="round" stroke-linejoin="round" stroke-width="16"/>
        <line x1="176" y1="104" x2="192" y2="104" fill="none" stroke="currentColor" stroke-linecap="round" stroke-linejoin="round" stroke-width="16"/>
        <line x1="64" y1="136" x2="80" y2="136" fill="none" stroke="currentColor" stroke-linecap="round" stroke-linejoin="round" stroke-width="16"/>
        <line x1="64" y1="168" x2="80" y2="168" fill="none" stroke="currentColor" stroke-linecap="round" stroke-linejoin="round" stroke-width="16"/>
        <line x1="120" y1="136" x2="136" y2="136" fill="none" stroke="currentColor" stroke-linecap="round" stroke-linejoin="round" stroke-width="16"/>
        <line x1="176" y1="136" x2="192" y2="136" fill="none" stroke="currentColor" stroke-linecap="round" stroke-linejoin="round" stroke-width="16"/>
        <line x1="176" y1="168" x2="192" y2="168" fill="none" stroke="currentColor" stroke-linecap="round" stroke-linejoin="round" stroke-width="16"/>
        <polyline points="112 216 112 168 144 168 144 216" fill="none" stroke="currentColor" stroke-linecap="round" stroke-linejoin="round" stroke-width="16"/>
    </symbol>
    <symbol id="documentation" fill="currentColor" viewBox="0 0 256 256">
        <path d="M213.66,66.34l-40-40A8,8,0,0,0,168,24H88A16,16,0,0,0,72,40V56H56A16,16,0,0,0,40,72V216a16,16,0,0,0,16,16H168a16,16,0,0,0,16-16V200h16a16,16,0,0,0,16-16V72A8,8,0,0,0,213.66,66.34ZM168,216H56V72h76.69L168,107.31v84.53c0,.06,0,.11,0,.16s0,.1,0,.16V216Zm32-32H184V104a8,8,0,0,0-2.34-5.66l-40-40A8,8,0,0,0,136,56H88V40h76.69L200,75.31Zm-56-32a8,8,0,0,1-8,8H88a8,8,0,0,1,0-16h48A8,8,0,0,1,144,152Zm0,32a8,8,0,0,1-8,8H88a8,8,0,0,1,0-16h48A8,8,0,0,1,144,184Z" />
    </symbol>
    <symbol id="code" fill="currentColor" viewBox="0 0 256 256">
        <path d="M69.12,94.15,28.5,128l40.62,33.85a8,8,0,1,1-10.24,12.29l-48-40a8,8,0,0,1,0-12.29l48-40a8,8,0,0,1,10.24,12.3Zm176,27.7-48-40a8,8,0,1,0-10.24,12.3L227.5,128l-40.62,33.85a8,8,0,1,0,10.24,12.29l48-40a8,8,0,0,0,0-12.29ZM162.73,32.48a8,8,0,0,0-10.25,4.79l-64,176a8,8,0,0,0,4.79,10.26A8.14,8.14,0,0,0,96,224a8,8,0,0,0,7.52-5.27l64-176A8,8,0,0,0,162.73,32.48Z" />
    </symbol>
    <symbol id="info" fill="currentColor" viewBox="0 0 256 256">
        <path d="M128,24A104,104,0,1,0,232,128,104.11,104.11,0,0,0,128,24Zm0,192a88,88,0,1,1,88-88A88.1,88.1,0,0,1,128,216Zm16-40a8,8,0,0,1-8,8,16,16,0,0,1-16-16V128a8,8,0,0,1,0-16,16,16,0,0,1,16,16v40A8,8,0,0,1,144,176ZM112,84a12,12,0,1,1,12,12A12,12,0,0,1,112,84Z" />
    </symbol>
    <symbol id="donate" fill="currentColor" viewBox="0 0 256 256">
        <path d="M230.33,141.06a24.34,24.34,0,0,0-18.61-4.77C230.5,117.33,240,98.48,240,80c0-26.47-21.29-48-47.46-48A47.58,47.58,0,0,0,156,48.75,47.58,47.58,0,0,0,119.46,32C93.29,32,72,53.53,72,80c0,11,3.24,21.69,10.06,33a31.87,31.87,0,0,0-14.75,8.4L44.69,144H16A16,16,0,0,0,0,160v40a16,16,0,0,0,16,16H120a7.93,7.93,0,0,0,1.94-.24l64-16a6.94,6.94,0,0,0,1.19-.4L226,182.82l.44-.2a24.6,24.6,0,0,0,3.93-41.56ZM119.46,48A31.15,31.15,0,0,1,148.6,67a8,8,0,0,0,14.8,0,31.15,31.15,0,0,1,29.14-19C209.59,48,224,62.65,224,80c0,19.51-15.79,41.58-45.66,63.9l-11.09,2.55A28,28,0,0,0,140,112H100.68C92.05,100.36,88,90.12,88,80,88,62.65,102.41,48,119.46,48ZM16,160H40v40H16Zm203.43,8.21-38,16.18L119,200H56V155.31l22.63-22.62A15.86,15.86,0,0,1,89.94,128H140a12,12,0,0,1,0,24H112a8,8,0,0,0,0,16h32a8.32,8.32,0,0,0,1.79-.2l67-15.41.31-.08a8.6,8.6,0,0,1,6.3,15.9Z" />
    </symbol>
    <symbol id="modlog" fill="currentColor" viewBox="0 0 256 256">
        <path d="M92,136H40a16,16,0,0,1-11.76-5.21,16.21,16.21,0,0,1-4.17-12.37A103.83,103.83,0,0,1,67.65,42.93,16,16,0,0,1,90.75,48l26,45a8,8,0,1,1-13.86,8L76.89,56A87.83,87.83,0,0,0,40,119.86a.19.19,0,0,0,.07.16L92,120a8,8,0,0,1,0,16Zm139.93-17.58a103.83,103.83,0,0,0-43.58-75.49A16,16,0,0,0,165.25,48L139.3,93a8,8,0,0,0,13.86,8l26-45A87.87,87.87,0,0,1,216,119.86c0,.07,0,.12,0,.14H164a8,8,0,0,0,0,16h52a16,16,0,0,0,11.76-5.21A16.21,16.21,0,0,0,231.93,118.42Zm-79,36.76a8,8,0,1,0-13.86,8l25.84,44.73a88.22,88.22,0,0,1-73.81,0l25.83-44.73a8,8,0,1,0-13.86-8L77.25,199.91a16,16,0,0,0,7.12,22.52,104.24,104.24,0,0,0,87.26,0,16,16,0,0,0,7.12-22.52ZM128,140a12,12,0,1,0-12-12A12,12,0,0,0,128,140Z" />
    </symbol>
    <symbol id="instances" fill="currentColor" viewBox="0 0 256 256">
        <path d="M200,152a31.84,31.84,0,0,0-19.53,6.68l-23.11-18A31.65,31.65,0,0,0,160,128c0-.74,0-1.48-.08-2.21l13.23-4.41A32,32,0,1,0,168,104c0,.74,0,1.48.08,2.21l-13.23,4.41A32,32,0,0,0,128,96a32.59,32.59,0,0,0-5.27.44L115.89,81A32,32,0,1,0,96,88a32.59,32.59,0,0,0,5.27-.44l6.84,15.4a31.92,31.92,0,0,0-8.57,39.64L73.83,165.44a32.06,32.06,0,1,0,10.63,12l25.71-22.84a31.91,31.91,0,0,0,37.36-1.24l23.11,18A31.65,31.65,0,0,0,168,184a32,32,0,1,0,32-32Zm0-64a16,16,0,1,1-16,16A16,16,0,0,1,200,88ZM80,56A16,16,0,1,1,96,72,16,16,0,0,1,80,56ZM56,208a16,16,0,1,1,16-16A16,16,0,0,1,56,208Zm56-80a16,16,0,1,1,16,16A16,16,0,0,1,112,128Zm88,72a16,16,0,1,1,16-16A16,16,0,0,1,200,200Z" />
    </symbol>
    <symbol id="legal" fill="currentColor" viewBox="0 0 256 256">
        <path d="M239.43,133l-32-80h0a8,8,0,0,0-9.16-4.84L136,62V40a8,8,0,0,0-16,0V65.58L54.26,80.19A8,8,0,0,0,48.57,85h0v.06L16.57,165a7.92,7.92,0,0,0-.57,3c0,23.31,24.54,32,40,32s40-8.69,40-32a7.92,7.92,0,0,0-.57-3L66.92,93.77,120,82V208H104a8,8,0,0,0,0,16h48a8,8,0,0,0,0-16H136V78.42L187,67.1,160.57,133a7.92,7.92,0,0,0-.57,3c0,23.31,24.54,32,40,32s40-8.69,40-32A7.92,7.92,0,0,0,239.43,133ZM56,184c-7.53,0-22.76-3.61-23.93-14.64L56,109.54l23.93,59.82C78.76,180.39,63.53,184,56,184Zm144-32c-7.53,0-22.76-3.61-23.93-14.64L200,77.54l23.93,59.82C222.76,148.39,207.53,152,200,152Z" />
    </symbol>
    <symbol id="theme" fill="currentColor" viewBox="0 0 256 256">
        <path d="M200.77,53.89A103.27,103.27,0,0,0,128,24h-1.07A104,104,0,0,0,24,128c0,43,26.58,79.06,69.36,94.17A32,32,0,0,0,136,192a16,16,0,0,1,16-16h46.21a31.81,31.81,0,0,0,31.2-24.88,104.43,104.43,0,0,0,2.59-24A103.28,103.28,0,0,0,200.77,53.89Zm13,93.71A15.89,15.89,0,0,1,198.21,160H152a32,32,0,0,0-32,32,16,16,0,0,1-21.31,15.07C62.49,194.3,40,164,40,128a88,88,0,0,1,87.09-88h.9a88.35,88.35,0,0,1,88,87.25A88.86,88.86,0,0,1,213.81,147.6ZM140,76a12,12,0,1,1-12-12A12,12,0,0,1,140,76ZM96,100A12,12,0,1,1,84,88,12,12,0,0,1,96,100Zm0,56a12,12,0,1,1-12-12A12,12,0,0,1,96,156Zm88-56a12,12,0,1,1-12-12A12,12,0,0,1,184,100Z" />
    </symbol>
    <symbol id="dropdown-caret" fill="currentColor" viewBox="0 0 256 256">
        <path d="M213.66,101.66l-80,80a8,8,0,0,1-11.32,0l-80-80A8,8,0,0,1,53.66,90.34L128,164.69l74.34-74.35a8,8,0,0,1,11.32,11.32Z" />
    </symbol>
    <symbol id="home" fill="currentColor" viewBox="0 0 256 256">
        <path d="M240,208H224V136l2.34,2.34A8,8,0,0,0,237.66,127L139.31,28.68a16,16,0,0,0-22.62,0L18.34,127a8,8,0,0,0,11.32,11.31L32,136v72H16a8,8,0,0,0,0,16H240a8,8,0,0,0,0-16ZM48,120l80-80,80,80v88H160V152a8,8,0,0,0-8-8H104a8,8,0,0,0-8,8v56H48Zm96,88H112V160h32Z" />
    </symbol>
    <symbol id="saved" fill="currentColor" viewBox="0 0 256 256">
        <path d="M192,24H96A16,16,0,0,0,80,40V56H64A16,16,0,0,0,48,72V224a8,8,0,0,0,12.65,6.51L112,193.83l51.36,36.68A8,8,0,0,0,176,224V184.69l19.35,13.82A8,8,0,0,0,208,192V40A16,16,0,0,0,192,24ZM160,208.46l-43.36-31a8,8,0,0,0-9.3,0L64,208.45V72h96Zm32-32L176,165V72a16,16,0,0,0-16-16H96V40h96Z" />
    </symbol>
    <symbol id="profile" fill="currentColor" viewBox="0 0 256 256">
        <path d="M128,24A104,104,0,1,0,232,128,104.11,104.11,0,0,0,128,24ZM74.08,197.5a64,64,0,0,1,107.84,0,87.83,87.83,0,0,1-107.84,0ZM96,120a32,32,0,1,1,32,32A32,32,0,0,1,96,120Zm97.76,66.41a79.66,79.66,0,0,0-36.06-28.75,48,48,0,1,0-59.4,0,79.66,79.66,0,0,0-36.06,28.75,88,88,0,1,1,131.52,0Z" />
    </symbol>
    <symbol id="hamburger" fill="currentColor" viewBox="0 0 256 256">
        <path d="M224,128a8,8,0,0,1-8,8H40a8,8,0,0,1,0-16H216A8,8,0,0,1,224,128ZM40,72H216a8,8,0,0,0,0-16H40a8,8,0,0,0,0,16ZM216,184H40a8,8,0,0,0,0,16H216a8,8,0,0,0,0-16Z" />
    </symbol>
    <symbol id="users" fill="currentColor" viewBox="0 0 256 256">
        <path d="M244.8,150.4a8,8,0,0,1-11.2-1.6A51.6,51.6,0,0,0,192,128a8,8,0,0,1-7.37-4.89,8,8,0,0,1,0-6.22A8,8,0,0,1,192,112a24,24,0,1,0-23.24-30,8,8,0,1,1-15.5-4A40,40,0,1,1,219,117.51a67.94,67.94,0,0,1,27.43,21.68A8,8,0,0,1,244.8,150.4ZM190.92,212a8,8,0,1,1-13.84,8,57,57,0,0,0-98.16,0,8,8,0,1,1-13.84-8,72.06,72.06,0,0,1,33.74-29.92,48,48,0,1,1,58.36,0A72.06,72.06,0,0,1,190.92,212ZM128,176a32,32,0,1,0-32-32A32,32,0,0,0,128,176ZM72,120a8,8,0,0,0-8-8A24,24,0,1,1,87.24,82a8,8,0,1,0,15.5-4A40,40,0,1,0,37,117.51,67.94,67.94,0,0,0,9.6,139.19a8,8,0,1,0,12.8,9.61A51.6,51.6,0,0,1,64,128,8,8,0,0,0,72,120Z" />
    </symbol>
    <symbol id="posts" fill="currentColor" viewBox="0 0 256 256">
        <path d="M96,104a8,8,0,0,1,8-8h64a8,8,0,0,1,0,16H104A8,8,0,0,1,96,104Zm8,40h64a8,8,0,0,0,0-16H104a8,8,0,0,0,0,16Zm128,48a32,32,0,0,1-32,32H88a32,32,0,0,1-32-32V64a16,16,0,0,0-32,0c0,5.74,4.83,9.62,4.88,9.66h0A8,8,0,0,1,24,88a7.89,7.89,0,0,1-4.79-1.61h0C18.05,85.54,8,77.61,8,64A32,32,0,0,1,40,32H176a32,32,0,0,1,32,32V168h8a8,8,0,0,1,4.8,1.6C222,170.46,232,178.39,232,192ZM96.26,173.48A8.07,8.07,0,0,1,104,168h88V64a16,16,0,0,0-16-16H67.69A31.71,31.71,0,0,1,72,64V192a16,16,0,0,0,32,0c0-5.74-4.83-9.62-4.88-9.66A7.82,7.82,0,0,1,96.26,173.48ZM216,192a12.58,12.58,0,0,0-3.23-8h-94a26.92,26.92,0,0,1,1.21,8,31.82,31.82,0,0,1-4.29,16H200A16,16,0,0,0,216,192Z" />
    </symbol>
    <symbol id="fediverse" fill="currentColor" viewBox="0 0 256 256">
        <rect width="256" height="256" fill="none"/>
        <circle cx="148" cy="44" r="20" fill="none" stroke="currentColor" stroke-linecap="round" stroke-linejoin="round" stroke-width="16"/>
        <circle cx="212" cy="124" r="20" fill="none" stroke="currentColor" stroke-linecap="round" stroke-linejoin="round" stroke-width="16"/>
        <circle cx="156" cy="212" r="20" fill="none" stroke="currentColor" stroke-linecap="round" stroke-linejoin="round" stroke-width="16"/>
        <circle cx="56" cy="184" r="20" fill="none" stroke="currentColor" stroke-linecap="round" stroke-linejoin="round" stroke-width="16"/>
        <circle cx="52" cy="84" r="20" fill="none" stroke="currentColor" stroke-linecap="round" stroke-linejoin="round" stroke-width="16"/>
        <line x1="201.26" y1="140.88" x2="166.74" y2="195.12" fill="none" stroke="currentColor" stroke-linecap="round" stroke-linejoin="round" stroke-width="16"/>
        <line x1="160.49" y1="59.62" x2="199.51" y2="108.38" fill="none" stroke="currentColor" stroke-linecap="round" stroke-linejoin="round" stroke-width="16"/>
        <line x1="70.47" y1="76.31" x2="129.53" y2="51.69" fill="none" stroke="currentColor" stroke-linecap="round" stroke-linejoin="round" stroke-width="16"/>
        <line x1="192.02" y1="124.95" x2="128" y2="128" fill="none" stroke="currentColor" stroke-linecap="round" stroke-linejoin="round" stroke-width="16"/>
        <line x1="128" y1="128" x2="143.37" y2="63.46" fill="none" stroke="currentColor" stroke-linecap="round" stroke-linejoin="round" stroke-width="16"/>
        <line x1="69.31" y1="94.02" x2="128" y2="128" fill="none" stroke="currentColor" stroke-linecap="round" stroke-linejoin="round" stroke-width="16"/>
        <line x1="128" y1="128" x2="149.67" y2="193.02" fill="none" stroke="currentColor" stroke-linecap="round" stroke-linejoin="round" stroke-width="16"/>
        <line x1="136.74" y1="206.61" x2="75.26" y2="189.39" fill="none" stroke="currentColor" stroke-linecap="round" stroke-linejoin="round" stroke-width="16"/>
        <line x1="71.79" y1="171.72" x2="128" y2="128" fill="none" stroke="currentColor" stroke-linecap="round" stroke-linejoin="round" stroke-width="16"/>
        <line x1="55.2" y1="164.02" x2="52.8" y2="103.98" fill="none" stroke="currentColor" stroke-linecap="round" stroke-linejoin="round" stroke-width="16"/>
    </symbol>
    <symbol id="x" fill="currentColor" viewBox="0 0 256 256">
        <rect width="256" height="256" fill="none"/>
        <line x1="160" y1="96" x2="96" y2="160" fill="none" stroke="currentColor" stroke-linecap="round" stroke-linejoin="round" stroke-width="16"/>
        <line x1="96" y1="96" x2="160" y2="160" fill="none" stroke="currentColor" stroke-linecap="round" stroke-linejoin="round" stroke-width="16"/>
        <circle cx="128" cy="128" r="96" fill="none" stroke="currentColor" stroke-linecap="round" stroke-linejoin="round" stroke-width="16"/>
    </symbol>
    <symbol id="image" fill="currentColor" viewBox="0 0 256 256">
        <path d="M216,40H40A16,16,0,0,0,24,56V200a16,16,0,0,0,16,16H216a16,16,0,0,0,16-16V56A16,16,0,0,0,216,40Zm0,16V158.75l-26.07-26.06a16,16,0,0,0-22.63,0l-20,20-44-44a16,16,0,0,0-22.62,0L40,149.37V56ZM40,172l52-52,80,80H40Zm176,28H194.63l-36-36,20-20L216,181.38V200ZM144,100a12,12,0,1,1,12,12A12,12,0,0,1,144,100Z" />
    </symbol>
    <symbol id="video" fill="currentColor" viewBox="0 0 256 256">
        <path d="M164.44,105.34l-48-32A8,8,0,0,0,104,80v64a8,8,0,0,0,12.44,6.66l48-32a8,8,0,0,0,0-13.32ZM120,129.05V95l25.58,17ZM216,40H40A16,16,0,0,0,24,56V168a16,16,0,0,0,16,16H216a16,16,0,0,0,16-16V56A16,16,0,0,0,216,40Zm0,128H40V56H216V168Zm16,40a8,8,0,0,1-8,8H32a8,8,0,0,1,0-16H224A8,8,0,0,1,232,208Z" />
    </symbol>
    <symbol id="external-link" fill="currentColor" viewBox="0 0 256 256">
        <path d="M224,104a8,8,0,0,1-16,0V59.32l-66.33,66.34a8,8,0,0,1-11.32-11.32L196.68,48H152a8,8,0,0,1,0-16h64a8,8,0,0,1,8,8Zm-40,24a8,8,0,0,0-8,8v72H48V80h72a8,8,0,0,0,0-16H48A16,16,0,0,0,32,80V208a16,16,0,0,0,16,16H176a16,16,0,0,0,16-16V136A8,8,0,0,0,184,128Z" />
    </symbol>
    <symbol id="clock" fill="currentColor" viewBox="0 0 256 256">
        <path d="M128,24A104,104,0,1,0,232,128,104.11,104.11,0,0,0,128,24Zm0,192a88,88,0,1,1,88-88A88.1,88.1,0,0,1,128,216Zm64-88a8,8,0,0,1-8,8H128a8,8,0,0,1-8-8V72a8,8,0,0,1,16,0v48h48A8,8,0,0,1,192,128Z" />
    </symbol>
    <symbol id="language" fill="currentColor" viewBox="0 0 256 256">
        <path d="M247.15,212.42l-56-112a8,8,0,0,0-14.31,0l-21.71,43.43A88,88,0,0,1,108,126.93,103.65,103.65,0,0,0,135.69,64H160a8,8,0,0,0,0-16H104V32a8,8,0,0,0-16,0V48H32a8,8,0,0,0,0,16h87.63A87.76,87.76,0,0,1,96,116.35a87.74,87.74,0,0,1-19-31,8,8,0,1,0-15.08,5.34A103.63,103.63,0,0,0,84,127a87.55,87.55,0,0,1-52,17,8,8,0,0,0,0,16,103.46,103.46,0,0,0,64-22.08,104.18,104.18,0,0,0,51.44,21.31l-26.6,53.19a8,8,0,0,0,14.31,7.16L148.94,192h70.11l13.79,27.58A8,8,0,0,0,240,224a8,8,0,0,0,7.15-11.58ZM156.94,176,184,121.89,211.05,176Z" />
    </symbol>
    <symbol id="warning" fill="currentColor" viewBox="0 0 256 256">
        <path d="M236.8,188.09,149.35,36.22h0a24.76,24.76,0,0,0-42.7,0L19.2,188.09a23.51,23.51,0,0,0,0,23.72A24.35,24.35,0,0,0,40.55,224h174.9a24.35,24.35,0,0,0,21.33-12.19A23.51,23.51,0,0,0,236.8,188.09ZM222.93,203.8a8.5,8.5,0,0,1-7.48,4.2H40.55a8.5,8.5,0,0,1-7.48-4.2,7.59,7.59,0,0,1,0-7.72L120.52,44.21a8.75,8.75,0,0,1,15,0l87.45,151.87A7.59,7.59,0,0,1,222.93,203.8ZM120,144V104a8,8,0,0,1,16,0v40a8,8,0,0,1-16,0Zm20,36a12,12,0,1,1-12-12A12,12,0,0,1,140,180Z" />
    </symbol>

    <use id="css-caret" href="#dropdown-caret" xlink:href="#dropdown-caret" />
    <use id="css-warning" href="#warning" xlink:href="#warning" />
</svg>
